<svg width="75" height="28" viewBox="0 0 75 28" fill="none" xmlns="http://www.w3.org/2000/svg">
<path d="M1.016 26.216C0.824 19.976 0.728 15.272 0.728 12.104C0.728 8.936 0.932 5.552 1.34 1.952L8.108 2.492C8.948 5.516 9.836 9.752 10.772 15.2C12.116 10.808 13.304 6.056 14.336 0.943999L21.14 1.556C21.332 8.972 21.428 14.396 21.428 17.828C21.428 21.236 21.32 24.272 21.104 26.936L16.172 26.468C16.484 23.444 16.748 17.036 16.964 7.244L16.676 7.208C16.436 8.144 16.052 9.752 15.524 12.032C14.42 16.76 13.352 20.792 12.32 24.128L9.044 23.84C8.468 21.536 7.796 18.56 7.028 14.912C6.284 11.24 5.708 8.54 5.3 6.812L5.012 6.776C5.228 14.792 5.48 21.416 5.768 26.648L1.016 26.216ZM31.7741 27.224C29.4941 27.224 27.5621 26.204 25.9781 24.164C24.4181 22.1 23.6381 18.98 23.6381 14.804C23.6381 10.604 24.4901 7.184 26.1941 4.544C27.9221 1.904 29.9501 0.583999 32.2781 0.583999C34.6061 0.583999 36.5381 1.616 38.0741 3.68C39.6341 5.744 40.4141 8.852 40.4141 13.004C40.4141 17.156 39.5501 20.564 37.8221 23.228C36.0941 25.892 34.0781 27.224 31.7741 27.224ZM32.3141 4.868C31.2581 4.868 30.3461 5.804 29.5781 7.676C28.8101 9.524 28.4261 11.864 28.4261 14.696C28.4261 17.504 28.7501 19.592 29.3981 20.96C30.0701 22.304 30.8981 22.976 31.8821 22.976C32.8661 22.976 33.7301 22.04 34.4741 20.168C35.2421 18.296 35.6261 15.956 35.6261 13.148C35.6261 10.316 35.3021 8.228 34.6541 6.884C34.0301 5.54 33.2501 4.868 32.3141 4.868ZM48.1355 21.608C48.9995 21.536 50.1395 21.5 51.5555 21.5C52.9715 21.5 54.7955 21.668 57.0275 22.004L56.4155 26.288C53.7035 25.928 51.6035 25.748 50.1155 25.748C48.6515 25.748 46.3355 26.012 43.1675 26.54L42.5915 22.76C47.1035 15.56 50.4155 9.896 52.5275 5.768C49.2155 5.96 46.3235 6.236 43.8515 6.596L43.1675 2.384C46.1195 1.76 50.8355 1.412 57.3155 1.34L57.9275 4.472C54.3755 11.24 51.1115 16.952 48.1355 21.608ZM63.4718 19.124V16.352C60.3278 9.704 58.5878 4.916 58.2518 1.988L62.7518 2.42C63.2798 5.108 64.3838 8.324 66.0638 12.068C68.0558 7.724 69.6038 3.8 70.7078 0.295998L74.8838 0.692C73.1078 5.756 70.9718 10.904 68.4758 16.136C68.4278 18.296 68.4038 20.192 68.4038 21.824C68.4038 23.456 68.4518 25.1 68.5478 26.756L63.7958 26.252C63.5798 24.02 63.4718 21.644 63.4718 19.124Z" fill="black"/>
</svg>
